<svg width="50" height="50" viewBox="0 0 50 50" fill="none" xmlns="http://www.w3.org/2000/svg">
<path d="M49.175 0.00942259C48.7245 0.0208044 48.3581 0.401424 48.3334 0.883364V1.0494C48.2715 2.61897 47.1891 3.9262 45.7417 4.17917L44.4717 4.40591C40.8949 5.0434 37.2752 5.36443 33.6492 5.36555H16.3509C12.7249 5.36443 9.10515 5.0434 5.52838 4.40591L4.25838 4.17917C2.81109 3.9262 1.72859 2.61897 1.66671 1.0494V0.883364C1.66192 0.390377 1.28484 -0.00508355 0.824629 4.94078e-05C0.364421 0.00529395 -0.00474554 0.409124 4.61227e-05 0.90211C4.61227e-05 0.970847 4.61227e-05 1.03869 4.61227e-05 1.10654L0.833379 44.6626C0.840671 45.0401 1.069 45.3718 1.40338 45.491L8.84671 48.1485L12.1275 49.9107C12.2436 49.9709 12.3711 50.0015 12.5 49.9999H37.5C37.629 50.0015 37.7565 49.9709 37.8725 49.9107L41.1534 48.153L48.5967 45.4954C48.9326 45.3757 49.1611 45.0417 49.1667 44.6626L50 1.10654C50 1.03869 50 0.970847 50 0.90211C50.0002 0.412583 49.632 0.0143324 49.175 0.00942259ZM19.1667 48.2146H12.6967L9.53921 46.5229C9.5039 46.5041 9.46744 46.488 9.43005 46.4747L2.48755 43.9957L1.74255 4.85582C2.38838 5.42123 3.1613 5.79516 3.98421 5.94044L5.25421 6.16718C8.92161 6.82074 12.6331 7.1497 16.3509 7.15093H19.1667V48.2146ZM29.1667 48.2146H20.8334V7.15093H29.1667V48.2146ZM47.5126 43.9957L40.57 46.4747C40.5327 46.488 40.4962 46.5041 40.4609 46.5229L37.3034 48.2146H30.8334V7.15093H33.6492C37.3684 7.15059 41.0812 6.82219 44.75 6.16897L46.0201 5.94223C46.843 5.79694 47.6159 5.42302 48.2617 4.85761L47.5126 43.9957Z" fill="white"/>
<path d="M10.2634 27.7259L5.26341 25.9405C4.82675 25.7847 4.35487 26.0376 4.20946 26.5054C4.18112 26.5964 4.16675 26.6917 4.16675 26.7877V41.0707C4.16664 41.4551 4.39633 41.7963 4.73675 41.9178L9.73675 43.7032C9.82175 43.7333 9.9106 43.7486 10.0001 43.7487C10.4603 43.7487 10.8334 43.349 10.8334 42.8561V28.573C10.8335 28.1886 10.6039 27.8474 10.2634 27.7259ZM9.16675 41.6179L5.83341 40.427V38.739L9.16675 39.9289V41.6179ZM9.16675 38.0462L5.83341 36.8563V35.1682L9.16675 36.3582V38.0462ZM9.16675 34.4755L5.83341 33.2855V31.5975L9.16675 32.7874V34.4755ZM9.16675 30.9047L5.83341 29.7148V28.0258L9.16675 29.2167V30.9047Z" fill="white"/>
<path d="M45.4868 26.0637C45.2697 25.896 44.9907 25.8502 44.7368 25.9405L39.7367 27.7259C39.3963 27.8474 39.1666 28.1886 39.1667 28.573V42.856C39.1667 43.349 39.5399 43.7487 40.0001 43.7487C40.0896 43.7486 40.1784 43.7333 40.2634 43.7032L45.2634 41.9178C45.6038 41.7963 45.8335 41.455 45.8334 41.0706V26.7876C45.8333 26.5006 45.7043 26.2313 45.4868 26.0637ZM44.1668 40.427L40.8334 41.6179V39.9289L44.1668 38.7389V40.427ZM44.1668 36.8563L40.8334 38.0462V36.3581L44.1668 35.1682V36.8563ZM44.1668 33.2855L40.8334 34.4755V32.7874L44.1668 31.5974V33.2855ZM44.1668 29.7148L40.8334 30.9047V29.2166L44.1668 28.0258V29.7148Z" fill="white"/>
</svg>
