<svg width="923" height="840" viewBox="0 0 923 840" fill="none" xmlns="http://www.w3.org/2000/svg">
<path d="M335.464 6.22915C336.997 2.4627 340.659 0 344.726 0H980.132C987.232 0 992.071 7.19416 989.393 13.7709L655.536 833.771C654.003 837.537 650.341 840 646.274 840H10.8685C3.76758 840 -1.07095 832.806 1.60671 826.229L335.464 6.22915Z" fill="#CD2A22"/>
<path d="M335.464 6.22915C336.997 2.4627 340.659 0 344.726 0H980.132C987.232 0 992.071 7.19416 989.393 13.7709L655.536 833.771C654.003 837.537 650.341 840 646.274 840H10.8685C3.76758 840 -1.07095 832.806 1.60671 826.229L335.464 6.22915Z" fill="url(#paint0_linear_93_318)"/>
<defs>
<linearGradient id="paint0_linear_93_318" x1="982.001" y1="-61.6175" x2="1130.76" y2="260.277" gradientUnits="userSpaceOnUse">
<stop stop-color="#FF4D42"/>
<stop offset="1" stop-color="#DF435F" stop-opacity="0"/>
</linearGradient>
</defs>
</svg>
